<svg width="192" height="21" fill="none" xmlns="http://www.w3.org/2000/svg"><path d="M9.269 17a21.735 21.735 0 00-1.05-1.533 19.85 19.85 0 00-1.302-1.659 22.546 22.546 0 00-1.449-1.596 14.792 14.792 0 00-1.512-1.365V17H.68V2.447h3.276v5.502a101.19 101.19 0 002.562-2.793c.868-.98 1.673-1.883 2.415-2.709h3.885a103.869 103.869 0 01-3.003 3.402 97.188 97.188 0 01-3.15 3.297c1.162.966 2.282 2.114 3.36 3.444A40.304 40.304 0 0113.154 17H9.269zm9.572-2.184c.308 0 .602-.007.882-.021.28-.014.504-.035.672-.063v-2.373a5.777 5.777 0 00-.567-.084 6.314 6.314 0 00-.693-.042c-.294 0-.574.021-.84.063a1.98 1.98 0 00-.672.189c-.196.098-.35.231-.462.399a1.112 1.112 0 00-.168.63c0 .49.161.833.483 1.029.336.182.791.273 1.365.273zM18.59 5.66c.924 0 1.694.105 2.31.315.616.21 1.106.511 1.47.903.378.392.644.868.798 1.428.154.56.231 1.183.231 1.869v6.51c-.448.098-1.07.21-1.869.336-.798.14-1.764.21-2.898.21a9.338 9.338 0 01-1.953-.189 4.337 4.337 0 01-1.49-.609 2.914 2.914 0 01-.967-1.134c-.224-.462-.336-1.029-.336-1.701 0-.644.126-1.19.378-1.638a3.077 3.077 0 011.05-1.071 4.526 4.526 0 011.491-.567 7.917 7.917 0 011.743-.189c.406 0 .763.021 1.071.063.322.028.581.07.777.126v-.294c0-.532-.16-.959-.483-1.281-.322-.322-.882-.483-1.68-.483-.532 0-1.057.042-1.575.126-.518.07-.966.175-1.344.315l-.399-2.52c.182-.056.406-.112.672-.168.28-.07.581-.126.903-.168.322-.056.658-.098 1.008-.126a9.52 9.52 0 011.092-.063zm10.747 4.977c-.028.49-.056 1.022-.084 1.596l-.084 1.743a58.938 58.938 0 01-.063 1.659c-.014.518-.028.973-.042 1.365h-3.045c.028-.77.07-1.638.126-2.604l.21-2.94c.084-1.008.168-1.988.252-2.94.098-.952.189-1.806.273-2.562h2.604a33.55 33.55 0 011.659 3.045c.504 1.05 1.036 2.205 1.596 3.465a88.865 88.865 0 011.722-3.717c.56-1.148 1.064-2.079 1.512-2.793h2.646c.098.756.189 1.61.273 2.562.098.952.182 1.932.252 2.94A122.109 122.109 0 0139.479 17H36.37c-.028-1.092-.07-2.177-.126-3.255-.042-1.078-.084-2.121-.126-3.129l-2.31 5.082h-2.163l-2.31-5.061zm12.342.924c0-.98.147-1.834.441-2.562.308-.742.707-1.358 1.197-1.848.49-.49 1.05-.861 1.68-1.113a5.374 5.374 0 011.974-.378c1.568 0 2.807.483 3.717 1.449.91.952 1.365 2.359 1.365 4.221 0 .182-.007.385-.02.609-.015.21-.029.399-.043.567h-7.098a2.08 2.08 0 00.903 1.533c.532.378 1.246.567 2.142.567.574 0 1.134-.049 1.68-.147.56-.112 1.015-.245 1.365-.399l.42 2.541a4.321 4.321 0 01-.672.252c-.28.084-.595.154-.945.21-.336.07-.7.126-1.092.168-.392.042-.784.063-1.176.063-.994 0-1.862-.147-2.604-.441-.728-.294-1.337-.693-1.827-1.197a5.082 5.082 0 01-1.07-1.827 7.402 7.402 0 01-.337-2.268zm7.35-1.197a2.934 2.934 0 00-.147-.777 1.732 1.732 0 00-.357-.672 1.76 1.76 0 00-.609-.483c-.238-.126-.539-.189-.903-.189-.35 0-.65.063-.903.189a1.754 1.754 0 00-.63.462 2.246 2.246 0 00-.399.693 4.84 4.84 0 00-.189.777h4.137zm12.516 1.197c0-.966-.217-1.736-.65-2.31-.435-.588-1.079-.882-1.933-.882-.28 0-.539.014-.777.042a5.047 5.047 0 00-.588.063v5.649c.196.126.448.231.756.315.322.084.644.126.966.126 1.484 0 2.226-1.001 2.226-3.003zm3.192-.084c0 .854-.105 1.631-.315 2.331-.21.7-.518 1.302-.924 1.806s-.91.896-1.512 1.176c-.602.28-1.295.42-2.079.42a5.608 5.608 0 01-2.31-.483v4.158h-3.129V6.332a9.89 9.89 0 01.966-.231 13.59 13.59 0 011.134-.21 17.95 17.95 0 011.218-.126c.42-.042.82-.063 1.197-.063.91 0 1.722.14 2.436.42a4.828 4.828 0 011.806 1.155c.49.49.861 1.092 1.113 1.806.266.714.4 1.512.4 2.394zm6.626 3.339c.308 0 .602-.007.882-.021.28-.014.504-.035.672-.063v-2.373a5.777 5.777 0 00-.567-.084 6.314 6.314 0 00-.693-.042c-.294 0-.574.021-.84.063a1.98 1.98 0 00-.672.189c-.196.098-.35.231-.462.399a1.112 1.112 0 00-.168.63c0 .49.16.833.483 1.029.336.182.79.273 1.365.273zM71.11 5.66c.924 0 1.694.105 2.31.315.616.21 1.106.511 1.47.903.378.392.644.868.798 1.428.154.56.23 1.183.23 1.869v6.51c-.447.098-1.07.21-1.868.336-.798.14-1.764.21-2.898.21a9.338 9.338 0 01-1.953-.189 4.337 4.337 0 01-1.491-.609 2.914 2.914 0 01-.966-1.134c-.224-.462-.336-1.029-.336-1.701 0-.644.126-1.19.378-1.638a3.077 3.077 0 011.05-1.071 4.526 4.526 0 011.49-.567 7.917 7.917 0 011.744-.189c.406 0 .763.021 1.07.063.323.028.582.07.778.126v-.294c0-.532-.161-.959-.483-1.281-.322-.322-.882-.483-1.68-.483-.532 0-1.057.042-1.575.126-.518.07-.966.175-1.344.315l-.4-2.52c.183-.056.407-.112.673-.168.28-.07.58-.126.903-.168.322-.056.658-.098 1.008-.126a9.52 9.52 0 011.092-.063zm21.67-3.213h3.276V17H92.78v-6.174h-5.5V17h-3.276V2.447h3.276v5.565h5.502V2.447zm10.655 12.369c.308 0 .602-.007.882-.021.28-.014.504-.035.672-.063v-2.373a5.777 5.777 0 00-.567-.084 6.314 6.314 0 00-.693-.042c-.294 0-.574.021-.84.063a1.98 1.98 0 00-.672.189c-.196.098-.35.231-.462.399a1.112 1.112 0 00-.168.63c0 .49.161.833.483 1.029.336.182.791.273 1.365.273zm-.252-9.156c.924 0 1.694.105 2.31.315.616.21 1.106.511 1.47.903.378.392.644.868.798 1.428.154.56.231 1.183.231 1.869v6.51c-.448.098-1.071.21-1.869.336-.798.14-1.764.21-2.898.21a9.338 9.338 0 01-1.953-.189 4.336 4.336 0 01-1.49-.609 2.914 2.914 0 01-.967-1.134c-.224-.462-.336-1.029-.336-1.701 0-.644.126-1.19.378-1.638a3.077 3.077 0 011.05-1.071 4.526 4.526 0 011.491-.567 7.917 7.917 0 011.743-.189c.406 0 .763.021 1.071.063.322.028.581.07.777.126v-.294c0-.532-.161-.959-.483-1.281-.322-.322-.882-.483-1.68-.483-.532 0-1.057.042-1.575.126-.518.07-.966.175-1.344.315l-.399-2.52a7.8 7.8 0 01.672-.168c.28-.07.581-.126.903-.168.322-.056.658-.098 1.008-.126a9.52 9.52 0 011.092-.063zm10.81 9.093c.574 0 .98-.056 1.218-.168.238-.112.357-.329.357-.651 0-.252-.154-.469-.462-.651-.308-.196-.777-.413-1.407-.651-.49-.182-.938-.371-1.344-.567a4.136 4.136 0 01-1.008-.693 2.958 2.958 0 01-.651-.987c-.154-.378-.231-.833-.231-1.365 0-1.036.385-1.855 1.155-2.457.77-.602 1.827-.903 3.171-.903.672 0 1.316.063 1.932.189.616.112 1.106.238 1.47.378l-.546 2.436a11.225 11.225 0 00-1.197-.336 6.308 6.308 0 00-1.428-.147c-.98 0-1.47.273-1.47.819 0 .126.021.238.063.336a.787.787 0 00.252.294c.126.084.294.182.504.294.224.098.504.21.84.336.686.252 1.253.504 1.701.756.448.238.798.504 1.05.798.266.28.448.595.546.945.112.35.168.756.168 1.218 0 1.092-.413 1.918-1.239 2.478-.812.56-1.967.84-3.465.84-.98 0-1.799-.084-2.457-.252-.644-.168-1.092-.308-1.344-.42l.525-2.541c.532.21 1.078.378 1.638.504.56.112 1.113.168 1.659.168zm10.192 0c.574 0 .98-.056 1.218-.168.238-.112.357-.329.357-.651 0-.252-.154-.469-.462-.651-.308-.196-.777-.413-1.407-.651-.49-.182-.938-.371-1.344-.567a4.136 4.136 0 01-1.008-.693 2.958 2.958 0 01-.651-.987c-.154-.378-.231-.833-.231-1.365 0-1.036.385-1.855 1.155-2.457.77-.602 1.827-.903 3.171-.903.672 0 1.316.063 1.932.189.616.112 1.106.238 1.47.378l-.546 2.436a11.225 11.225 0 00-1.197-.336 6.308 6.308 0 00-1.428-.147c-.98 0-1.47.273-1.47.819 0 .126.021.238.063.336a.787.787 0 00.252.294c.126.084.294.182.504.294.224.098.504.21.84.336.686.252 1.253.504 1.701.756.448.238.798.504 1.05.798.266.28.448.595.546.945.112.35.168.756.168 1.218 0 1.092-.413 1.918-1.239 2.478-.812.56-1.967.84-3.465.84-.98 0-1.799-.084-2.457-.252-.644-.168-1.092-.308-1.344-.42l.525-2.541c.532.21 1.078.378 1.638.504.56.112 1.113.168 1.659.168zm6.496-3.192c0-.98.147-1.834.441-2.562.308-.742.707-1.358 1.197-1.848.49-.49 1.05-.861 1.68-1.113a5.374 5.374 0 011.974-.378c1.568 0 2.807.483 3.717 1.449.91.952 1.365 2.359 1.365 4.221 0 .182-.007.385-.021.609-.014.21-.028.399-.042.567h-7.098a2.08 2.08 0 00.903 1.533c.532.378 1.246.567 2.142.567.574 0 1.134-.049 1.68-.147.56-.112 1.015-.245 1.365-.399l.42 2.541a4.321 4.321 0 01-.672.252c-.28.084-.595.154-.945.21-.336.07-.7.126-1.092.168-.392.042-.784.063-1.176.063-.994 0-1.862-.147-2.604-.441-.728-.294-1.337-.693-1.827-1.197a5.082 5.082 0 01-1.071-1.827 7.402 7.402 0 01-.336-2.268zm7.35-1.197a2.934 2.934 0 00-.147-.777 1.732 1.732 0 00-.357-.672 1.76 1.76 0 00-.609-.483c-.238-.126-.539-.189-.903-.189-.35 0-.651.063-.903.189a1.754 1.754 0 00-.63.462 2.246 2.246 0 00-.399.693 4.84 4.84 0 00-.189.777h4.137zm9.849 6.846c-.91-.014-1.652-.112-2.226-.294-.56-.182-1.008-.434-1.344-.756a2.744 2.744 0 01-.672-1.197 6.981 6.981 0 01-.168-1.596V1.208l3.13-.504v12.033c0 .28.021.532.063.756.042.224.119.413.231.567.126.154.301.28.525.378.224.098.525.161.903.189l-.441 2.583zm9.312-5.817c0-2.016-.742-3.024-2.226-3.024-.322 0-.644.042-.966.126a2.73 2.73 0 00-.756.315v5.691c.154.028.35.056.588.084.238.014.497.021.777.021.854 0 1.498-.294 1.932-.882.434-.588.651-1.365.651-2.331zm3.192.084c0 .882-.133 1.68-.399 2.394a4.938 4.938 0 01-1.113 1.827 5.05 5.05 0 01-1.806 1.176c-.714.266-1.526.399-2.436.399-.378 0-.777-.021-1.197-.063a17.95 17.95 0 01-1.218-.126c-.392-.056-.77-.119-1.134-.189a15.614 15.614 0 01-.966-.252V1.208l3.129-.504v5.502a5.608 5.608 0 012.31-.483c.784 0 1.477.14 2.079.42a3.974 3.974 0 011.512 1.155c.406.504.714 1.113.924 1.827.21.7.315 1.484.315 2.352zm6.814 5.733c-.91-.014-1.652-.112-2.226-.294-.56-.182-1.008-.434-1.344-.756a2.744 2.744 0 01-.672-1.197 6.981 6.981 0 01-.168-1.596V1.208l3.129-.504v12.033c0 .28.021.532.063.756.042.224.119.413.231.567.126.154.301.28.525.378.224.098.525.161.903.189l-.441 2.583zm6.763-2.394c.308 0 .602-.007.882-.021.28-.014.504-.035.672-.063v-2.373a5.777 5.777 0 00-.567-.084 6.314 6.314 0 00-.693-.042c-.294 0-.574.021-.84.063a1.98 1.98 0 00-.672.189c-.196.098-.35.231-.462.399a1.112 1.112 0 00-.168.63c0 .49.161.833.483 1.029.336.182.791.273 1.365.273zm-.252-9.156c.924 0 1.694.105 2.31.315.616.21 1.106.511 1.47.903.378.392.644.868.798 1.428.154.56.231 1.183.231 1.869v6.51c-.448.098-1.071.21-1.869.336-.798.14-1.764.21-2.898.21a9.338 9.338 0 01-1.953-.189 4.337 4.337 0 01-1.491-.609 2.914 2.914 0 01-.966-1.134c-.224-.462-.336-1.029-.336-1.701 0-.644.126-1.19.378-1.638a3.077 3.077 0 011.05-1.071 4.526 4.526 0 011.491-.567 7.917 7.917 0 011.743-.189c.406 0 .763.021 1.071.063.322.028.581.07.777.126v-.294c0-.532-.161-.959-.483-1.281-.322-.322-.882-.483-1.68-.483-.532 0-1.057.042-1.575.126-.518.07-.966.175-1.344.315l-.399-2.52c.182-.056.406-.112.672-.168.28-.07.581-.126.903-.168.322-.056.658-.098 1.008-.126a9.52 9.52 0 011.092-.063zm10.306 5.733c0 .966.217 1.743.651 2.331.434.588 1.078.882 1.932.882.28 0 .539-.007.777-.021.238-.028.434-.056.588-.084V8.81a2.71 2.71 0 00-.777-.315 3.576 3.576 0 00-.945-.126c-1.484 0-2.226 1.008-2.226 3.024zm7.077 5.25c-.28.084-.602.168-.966.252-.364.07-.749.133-1.155.189-.392.056-.798.098-1.218.126-.406.042-.798.063-1.176.063-.91 0-1.722-.133-2.436-.399a4.964 4.964 0 01-1.806-1.134 5.211 5.211 0 01-1.134-1.806c-.252-.714-.378-1.512-.378-2.394 0-.896.112-1.701.336-2.415.224-.728.546-1.344.966-1.848.42-.504.931-.889 1.533-1.155.616-.266 1.316-.399 2.1-.399.434 0 .819.042 1.155.126.35.084.7.203 1.05.357V1.208l3.129-.504v15.939z" fill="#fff"/></svg>